<svg width="24" height="24" viewBox="0 0 24 24" fill="none" xmlns="http://www.w3.org/2000/svg">
<mask id="mask0_406_5498" style="mask-type:alpha" maskUnits="userSpaceOnUse" x="0" y="0" width="24" height="24">
<rect width="24" height="24" fill="#D9D9D9"/>
</mask>
<g mask="url(#mask0_406_5498)">
<path d="M6 19.5V5.625C6 5.15833 6.15433 4.771 6.463 4.463C6.771 4.15433 7.15833 4 7.625 4H16.375C16.8417 4 17.2293 4.15433 17.538 4.463C17.846 4.771 18 5.15833 18 5.625V19.5L12 16.925L6 19.5ZM7 17.95L12 15.8L17 17.95V5.625C17 5.45833 16.9373 5.31267 16.812 5.188C16.6873 5.06267 16.5417 5 16.375 5H7.625C7.45833 5 7.31267 5.06267 7.188 5.188C7.06267 5.31267 7 5.45833 7 5.625V17.95Z" fill="#191919"/>
</g>
</svg>
