<svg width="24" height="24" viewBox="0 0 24 24" fill="none" xmlns="http://www.w3.org/2000/svg">
<mask id="mask0_406_5507" style="mask-type:alpha" maskUnits="userSpaceOnUse" x="0" y="0" width="24" height="24">
<rect width="24" height="24" fill="#D9D9D9"/>
</mask>
<g mask="url(#mask0_406_5507)">
<path d="M5.30005 19H6.37505L16.275 9.1L15.2 8.025L5.30005 17.925V19ZM18.425 8.375L15.925 5.9L17.125 4.7C17.325 4.48333 17.5667 4.375 17.85 4.375C18.1334 4.375 18.375 4.48333 18.575 4.7L19.625 5.725C19.825 5.925 19.925 6.16667 19.925 6.45C19.925 6.73333 19.825 6.975 19.625 7.175L18.425 8.375ZM17.7 9.1L6.80005 20H4.30005V17.5L15.2 6.6L17.7 9.1Z" fill="#191919"/>
</g>
</svg>
