<svg width="24" height="24" viewBox="0 0 24 24" fill="none" xmlns="http://www.w3.org/2000/svg">
<mask id="mask0_406_5510" style="mask-type:alpha" maskUnits="userSpaceOnUse" x="0" y="0" width="24" height="24">
<rect width="24" height="24" fill="#D9D9D9"/>
</mask>
<g mask="url(#mask0_406_5510)">
<path d="M5.625 22.6998C5.15833 22.6998 4.771 22.5455 4.463 22.2368C4.15433 21.9288 4 21.5415 4 21.0748V8.3248C4 7.85814 4.15433 7.47047 4.463 7.1618C4.771 6.8538 5.15833 6.6998 5.625 6.6998H13.775L12.775 7.6998H5.625C5.45833 7.6998 5.31267 7.76214 5.188 7.8868C5.06267 8.01214 5 8.15814 5 8.3248V21.0748C5 21.2415 5.06267 21.3871 5.188 21.5118C5.31267 21.6371 5.45833 21.6998 5.625 21.6998H18.375C18.5417 21.6998 18.6873 21.6371 18.812 21.5118C18.9373 21.3871 19 21.2415 19 21.0748V13.9248L20 12.9248V21.0748C20 21.5415 19.846 21.9288 19.538 22.2368C19.2293 22.5455 18.8417 22.6998 18.375 22.6998H5.625ZM16.875 6.9748L17.625 7.6748L11 14.2748V15.6998H12.4L19.075 9.0748L19.75 9.7748L12.85 16.6998H10V13.8498L16.875 6.9748ZM19.75 9.7748L16.875 6.9748L18.975 4.8998C19.275 4.58314 19.6543 4.4248 20.113 4.4248C20.571 4.4248 20.95 4.58314 21.25 4.8998L21.8 5.4498C22.1167 5.76647 22.275 6.1458 22.275 6.5878C22.275 7.02914 22.1167 7.40814 21.8 7.7248L19.75 9.7748Z" fill="#191919"/>
</g>
</svg>
