<svg width="24" height="24" viewBox="0 0 24 24" fill="none" xmlns="http://www.w3.org/2000/svg">
<mask id="mask0_406_5459" style="mask-type:alpha" maskUnits="userSpaceOnUse" x="0" y="0" width="24" height="24">
<rect width="24" height="24" fill="#D9D9D9"/>
</mask>
<g mask="url(#mask0_406_5459)">
<path d="M12 19.6499L11.25 18.9749C9.61667 17.4749 8.26667 16.1956 7.2 15.1369C6.13333 14.0789 5.28767 13.1456 4.663 12.3369C4.03767 11.5289 3.604 10.7956 3.362 10.1369C3.12067 9.4789 3 8.81657 3 8.1499C3 6.88324 3.43333 5.81657 4.3 4.9499C5.16667 4.08324 6.23333 3.6499 7.5 3.6499C8.38333 3.6499 9.20833 3.8749 9.975 4.3249C10.7417 4.7749 11.4167 5.43324 12 6.2999C12.5833 5.43324 13.2583 4.7749 14.025 4.3249C14.7917 3.8749 15.6167 3.6499 16.5 3.6499C17.7667 3.6499 18.8333 4.08324 19.7 4.9499C20.5667 5.81657 21 6.88324 21 8.1499C21 8.81657 20.8793 9.4789 20.638 10.1369C20.396 10.7956 19.9627 11.5289 19.338 12.3369C18.7127 13.1456 17.8707 14.0789 16.812 15.1369C15.754 16.1956 14.4 17.4749 12.75 18.9749L12 19.6499Z" fill="#191919"/>
</g>
</svg>
