<svg width="24" height="24" viewBox="0 0 24 24" fill="none" xmlns="http://www.w3.org/2000/svg">
<mask id="mask0_406_5456" style="mask-type:alpha" maskUnits="userSpaceOnUse" x="0" y="0" width="24" height="24">
<rect width="24" height="24" fill="#D9D9D9"/>
</mask>
<g mask="url(#mask0_406_5456)">
<path d="M12 19.6499L11.25 18.9749C9.61667 17.4749 8.26667 16.1956 7.2 15.1369C6.13333 14.0789 5.28767 13.1456 4.663 12.3369C4.03767 11.5289 3.604 10.7956 3.362 10.1369C3.12067 9.4789 3 8.81657 3 8.1499C3 6.88324 3.43333 5.81657 4.3 4.9499C5.16667 4.08324 6.23333 3.6499 7.5 3.6499C8.38333 3.6499 9.20833 3.8749 9.975 4.3249C10.7417 4.7749 11.4167 5.43324 12 6.2999C12.5833 5.43324 13.2583 4.7749 14.025 4.3249C14.7917 3.8749 15.6167 3.6499 16.5 3.6499C17.7667 3.6499 18.8333 4.08324 19.7 4.9499C20.5667 5.81657 21 6.88324 21 8.1499C21 8.81657 20.8793 9.4789 20.638 10.1369C20.396 10.7956 19.9627 11.5289 19.338 12.3369C18.7127 13.1456 17.8707 14.0789 16.812 15.1369C15.754 16.1956 14.4 17.4749 12.75 18.9749L12 19.6499ZM12 18.2999C13.6 16.8499 14.9167 15.6082 15.95 14.5749C16.9833 13.5416 17.8 12.6456 18.4 11.8869C19 11.1289 19.4167 10.4582 19.65 9.8749C19.8833 9.29157 20 8.71657 20 8.1499C20 7.1499 19.6667 6.31657 19 5.6499C18.3333 4.98324 17.5 4.6499 16.5 4.6499C15.7 4.6499 14.9627 4.8789 14.288 5.3369C13.6127 5.79557 13.0167 6.4749 12.5 7.3749H11.5C10.9667 6.45824 10.3667 5.7749 9.7 5.3249C9.03333 4.8749 8.3 4.6499 7.5 4.6499C6.51667 4.6499 5.68767 4.98324 5.013 5.6499C4.33767 6.31657 4 7.1499 4 8.1499C4 8.71657 4.11667 9.29157 4.35 9.8749C4.58333 10.4582 5 11.1289 5.6 11.8869C6.2 12.6456 7.01667 13.5372 8.05 14.5619C9.08333 15.5872 10.4 16.8332 12 18.2999Z" fill="#191919"/>
</g>
</svg>
