<svg width="24" height="24" viewBox="0 0 24 24" fill="none" xmlns="http://www.w3.org/2000/svg">
<mask id="mask0_406_5519" style="mask-type:alpha" maskUnits="userSpaceOnUse" x="0" y="0" width="24" height="24">
<rect width="24" height="24" fill="#D9D9D9"/>
</mask>
<g mask="url(#mask0_406_5519)">
<path d="M7.55005 17.625V4.375H12.375C13.425 4.375 14.3417 4.7 15.125 5.35C15.9084 6 16.3 6.825 16.3 7.825C16.3 8.44167 16.1374 9.00833 15.812 9.525C15.4874 10.0417 15.0417 10.4333 14.475 10.7V10.825C15.1584 11.0417 15.7127 11.4373 16.138 12.012C16.5627 12.5873 16.775 13.2417 16.775 13.975C16.775 15.0417 16.35 15.9167 15.5 16.6C14.65 17.2833 13.6667 17.625 12.55 17.625H7.55005ZM9.45005 10H12.25C12.8334 10 13.3417 9.81667 13.775 9.45C14.2084 9.08333 14.425 8.61667 14.425 8.05C14.425 7.48333 14.2084 7.01667 13.775 6.65C13.3417 6.28333 12.8334 6.1 12.25 6.1H9.45005V10ZM9.45005 15.9H12.45C13.0834 15.9 13.6377 15.7 14.113 15.3C14.5877 14.9 14.825 14.3917 14.825 13.775C14.825 13.1583 14.5877 12.65 14.113 12.25C13.6377 11.85 13.0834 11.65 12.45 11.65H9.45005V15.9Z" fill="#191919"/>
</g>
</svg>
