<svg width="24" height="24" viewBox="0 0 24 24" fill="none" xmlns="http://www.w3.org/2000/svg">
<mask id="mask0_406_5546" style="mask-type:alpha" maskUnits="userSpaceOnUse" x="0" y="0" width="24" height="24">
<rect width="24" height="24" fill="#D9D9D9"/>
</mask>
<g mask="url(#mask0_406_5546)">
<path d="M5.625 20C5.15833 20 4.771 19.846 4.463 19.538C4.15433 19.2293 4 18.8417 4 18.375V5.625C4 5.15833 4.15433 4.771 4.463 4.463C4.771 4.15433 5.15833 4 5.625 4H10V5H5.625C5.45833 5 5.31267 5.06267 5.188 5.188C5.06267 5.31267 5 5.45833 5 5.625V18.375C5 18.5417 5.06267 18.6873 5.188 18.812C5.31267 18.9373 5.45833 19 5.625 19H18.375C18.5417 19 18.6873 18.9373 18.812 18.812C18.9373 18.6873 19 18.5417 19 18.375V13L20 14V18.375C20 18.8417 19.846 19.2293 19.538 19.538C19.2293 19.846 18.8417 20 18.375 20H5.625ZM7.5 16.5L9.45 13.925L11.2 16.05L13.825 12.725L16.65 16.5H7.5ZM21.275 12.475L18.15 9.35C17.8 9.58333 17.4667 9.75 17.15 9.85C16.8333 9.95 16.4833 10 16.1 10C15.1167 10 14.2877 9.66233 13.613 8.987C12.9377 8.31233 12.6 7.48333 12.6 6.5C12.6 5.51667 12.9377 4.68733 13.613 4.012C14.2877 3.33733 15.1167 3 16.1 3C17.0833 3 17.9123 3.33733 18.587 4.012C19.2623 4.68733 19.6 5.51667 19.6 6.5C19.6 6.9 19.5417 7.279 19.425 7.637C19.3083 7.99567 19.1333 8.34167 18.9 8.675L22 11.775L21.275 12.475ZM16.1 9C16.8 9 17.3917 8.75833 17.875 8.275C18.3583 7.79167 18.6 7.2 18.6 6.5C18.6 5.8 18.3583 5.20833 17.875 4.725C17.3917 4.24167 16.8 4 16.1 4C15.4 4 14.8083 4.24167 14.325 4.725C13.8417 5.20833 13.6 5.8 13.6 6.5C13.6 7.2 13.8417 7.79167 14.325 8.275C14.8083 8.75833 15.4 9 16.1 9Z" fill="#191919"/>
</g>
</svg>
