<svg width="24" height="24" viewBox="0 0 24 24" fill="none" xmlns="http://www.w3.org/2000/svg">
<mask id="mask0_406_5540" style="mask-type:alpha" maskUnits="userSpaceOnUse" x="0" y="0" width="24" height="24">
<rect width="24" height="24" fill="#D9D9D9"/>
</mask>
<g mask="url(#mask0_406_5540)">
<path d="M4 19.375V8.85C3.75 8.76667 3.52067 8.59167 3.312 8.325C3.104 8.05833 3 7.74167 3 7.375V5.625C3 5.15833 3.15433 4.771 3.463 4.463C3.771 4.15433 4.15833 4 4.625 4H19.375C19.8417 4 20.2293 4.15433 20.538 4.463C20.846 4.771 21 5.15833 21 5.625V7.375C21 7.74167 20.896 8.05833 20.688 8.325C20.4793 8.59167 20.25 8.76667 20 8.85V19.375C20 19.8417 19.846 20.2293 19.538 20.538C19.2293 20.846 18.8417 21 18.375 21H5.625C5.15833 21 4.771 20.846 4.463 20.538C4.15433 20.2293 4 19.8417 4 19.375ZM5 9V19.375C5 19.5583 5.05833 19.7083 5.175 19.825C5.29167 19.9417 5.44167 20 5.625 20H18.375C18.5583 20 18.7083 19.9417 18.825 19.825C18.9417 19.7083 19 19.5583 19 19.375V9H5ZM19.375 8C19.5583 8 19.7083 7.94167 19.825 7.825C19.9417 7.70833 20 7.55833 20 7.375V5.625C20 5.44167 19.9417 5.29167 19.825 5.175C19.7083 5.05833 19.5583 5 19.375 5H4.625C4.44167 5 4.29167 5.05833 4.175 5.175C4.05833 5.29167 4 5.44167 4 5.625V7.375C4 7.55833 4.05833 7.70833 4.175 7.825C4.29167 7.94167 4.44167 8 4.625 8H19.375ZM9.375 13.375H14.625V12.375H9.375V13.375Z" fill="#191919"/>
</g>
</svg>
