<svg width="24" height="24" viewBox="0 0 24 24" fill="none" xmlns="http://www.w3.org/2000/svg">
<mask id="mask0_406_5549" style="mask-type:alpha" maskUnits="userSpaceOnUse" x="0" y="0" width="24" height="24">
<rect width="24" height="24" fill="#D9D9D9"/>
</mask>
<g mask="url(#mask0_406_5549)">
<path d="M13.875 9.6002V8.6502C14.425 8.38353 15.0043 8.18353 15.613 8.0502C16.221 7.91686 16.85 7.8502 17.5 7.8502C17.8667 7.8502 18.2207 7.8752 18.562 7.9252C18.904 7.9752 19.2583 8.04186 19.625 8.1252V9.0252C19.275 8.90853 18.9333 8.8292 18.6 8.7872C18.2667 8.74586 17.9 8.7252 17.5 8.7252C16.85 8.7252 16.2167 8.8002 15.6 8.9502C14.9833 9.1002 14.4083 9.31686 13.875 9.6002ZM13.875 15.0502V14.0752C14.3917 13.8085 14.9667 13.6085 15.6 13.4752C16.2333 13.3419 16.8667 13.2752 17.5 13.2752C17.8667 13.2752 18.2207 13.2959 18.562 13.3372C18.904 13.3792 19.2583 13.4502 19.625 13.5502V14.4502C19.275 14.3335 18.9333 14.2542 18.6 14.2122C18.2667 14.1709 17.9 14.1502 17.5 14.1502C16.85 14.1502 16.2167 14.2292 15.6 14.3872C14.9833 14.5459 14.4083 14.7669 13.875 15.0502ZM13.875 12.3502V11.3752C14.425 11.1085 15.0043 10.9042 15.613 10.7622C16.221 10.6209 16.85 10.5502 17.5 10.5502C17.8667 10.5502 18.2207 10.5752 18.562 10.6252C18.904 10.6752 19.2583 10.7419 19.625 10.8252V11.7502C19.275 11.6335 18.9333 11.5542 18.6 11.5122C18.2667 11.4709 17.9 11.4502 17.5 11.4502C16.85 11.4502 16.2167 11.5295 15.6 11.6882C14.9833 11.8462 14.4083 12.0669 13.875 12.3502ZM6.5 16.0502C7.36667 16.0502 8.21267 16.1502 9.038 16.3502C9.86267 16.5502 10.6833 16.8752 11.5 17.3252V7.5002C10.7833 6.98353 9.98767 6.59586 9.113 6.3372C8.23767 6.0792 7.36667 5.9502 6.5 5.9502C5.9 5.9502 5.375 5.98753 4.925 6.0622C4.475 6.13753 3.975 6.2752 3.425 6.4752C3.275 6.5252 3.16667 6.5962 3.1 6.6882C3.03333 6.77953 3 6.88353 3 7.0002V16.0252C3 16.2085 3.06267 16.3419 3.188 16.4252C3.31267 16.5085 3.45833 16.5169 3.625 16.4502C3.99167 16.3169 4.41267 16.2169 4.888 16.1502C5.36267 16.0835 5.9 16.0502 6.5 16.0502ZM12.5 17.3252C13.3167 16.8752 14.1377 16.5502 14.963 16.3502C15.7877 16.1502 16.6333 16.0502 17.5 16.0502C18.1 16.0502 18.6377 16.0835 19.113 16.1502C19.5877 16.2169 20.0083 16.3169 20.375 16.4502C20.5417 16.5169 20.6873 16.5085 20.812 16.4252C20.9373 16.3419 21 16.2085 21 16.0252V7.0002C21 6.88353 20.9667 6.78353 20.9 6.7002C20.8333 6.61686 20.725 6.54186 20.575 6.4752C20.025 6.2752 19.525 6.13753 19.075 6.0622C18.625 5.98753 18.1 5.9502 17.5 5.9502C16.6333 5.9502 15.7623 6.0792 14.887 6.3372C14.0123 6.59586 13.2167 6.98353 12.5 7.5002V17.3252ZM12 18.7752C11.1833 18.2085 10.3083 17.7795 9.375 17.4882C8.44167 17.1962 7.48333 17.0502 6.5 17.0502C5.98333 17.0502 5.475 17.0919 4.975 17.1752C4.475 17.2585 3.98333 17.4002 3.5 17.6002C3.13333 17.7335 2.79167 17.6835 2.475 17.4502C2.15833 17.2169 2 16.9002 2 16.5002V6.8252C2 6.5752 2.06667 6.34586 2.2 6.1372C2.33333 5.9292 2.51667 5.78353 2.75 5.7002C3.33333 5.43353 3.94167 5.24186 4.575 5.1252C5.20833 5.00853 5.85 4.9502 6.5 4.9502C7.48333 4.9502 8.44167 5.09186 9.375 5.3752C10.3083 5.65853 11.1833 6.0752 12 6.6252C12.8167 6.0752 13.6917 5.65853 14.625 5.3752C15.5583 5.09186 16.5167 4.9502 17.5 4.9502C18.15 4.9502 18.7917 5.00853 19.425 5.1252C20.0583 5.24186 20.6667 5.43353 21.25 5.7002C21.4833 5.78353 21.6667 5.9292 21.8 6.1372C21.9333 6.34586 22 6.5752 22 6.8252V16.5002C22 16.9002 21.8293 17.2129 21.488 17.4382C21.146 17.6629 20.775 17.7002 20.375 17.5502C19.925 17.3669 19.4583 17.2379 18.975 17.1632C18.4917 17.0879 18 17.0502 17.5 17.0502C16.5167 17.0502 15.5583 17.1962 14.625 17.4882C13.6917 17.7795 12.8167 18.2085 12 18.7752Z" fill="#191919"/>
</g>
</svg>
