<svg width="24" height="24" viewBox="0 0 24 24" fill="none" xmlns="http://www.w3.org/2000/svg">
<mask id="mask0_406_5528" style="mask-type:alpha" maskUnits="userSpaceOnUse" x="0" y="0" width="24" height="24">
<rect width="24" height="24" fill="#D9D9D9"/>
</mask>
<g mask="url(#mask0_406_5528)">
<path d="M6.44995 13C6.18328 13 5.94995 12.904 5.74995 12.712C5.54995 12.5207 5.44995 12.2833 5.44995 12C5.44995 11.7167 5.54995 11.479 5.74995 11.287C5.94995 11.0957 6.18328 11 6.44995 11C6.73328 11 6.97062 11.0957 7.16195 11.287C7.35395 11.479 7.44995 11.7167 7.44995 12C7.44995 12.2833 7.35395 12.5207 7.16195 12.712C6.97062 12.904 6.73328 13 6.44995 13ZM12 13C11.7166 13 11.4793 12.904 11.288 12.712C11.096 12.5207 11 12.2833 11 12C11 11.7167 11.096 11.479 11.288 11.287C11.4793 11.0957 11.7166 11 12 11C12.2833 11 12.521 11.0957 12.713 11.287C12.9043 11.479 13 11.7167 13 12C13 12.2833 12.9043 12.5207 12.713 12.712C12.521 12.904 12.2833 13 12 13ZM17.55 13C17.2666 13 17.029 12.904 16.837 12.712C16.6456 12.5207 16.55 12.2833 16.55 12C16.55 11.7167 16.6456 11.479 16.837 11.287C17.029 11.0957 17.2666 11 17.55 11C17.8166 11 18.05 11.0957 18.25 11.287C18.45 11.479 18.55 11.7167 18.55 12C18.55 12.2833 18.45 12.5207 18.25 12.712C18.05 12.904 17.8166 13 17.55 13Z" fill="#191919"/>
</g>
</svg>
