<svg width="24" height="24" viewBox="0 0 24 24" fill="none" xmlns="http://www.w3.org/2000/svg">
<mask id="mask0_406_5504" style="mask-type:alpha" maskUnits="userSpaceOnUse" x="0" y="0" width="24" height="24">
<rect width="24" height="24" fill="#D9D9D9"/>
</mask>
<g mask="url(#mask0_406_5504)">
<path d="M18 21.5C17.3 21.5 16.7083 21.2583 16.225 20.775C15.7417 20.2917 15.5 19.7 15.5 19C15.5 18.8667 15.5127 18.729 15.538 18.587C15.5627 18.4457 15.6 18.3083 15.65 18.175L7.9 13.625C7.65 13.8917 7.36267 14.104 7.038 14.262C6.71267 14.4207 6.36667 14.5 6 14.5C5.3 14.5 4.70833 14.2583 4.225 13.775C3.74167 13.2917 3.5 12.7 3.5 12C3.5 11.3 3.74167 10.7083 4.225 10.225C4.70833 9.74167 5.3 9.5 6 9.5C6.36667 9.5 6.71267 9.57933 7.038 9.738C7.36267 9.896 7.65 10.1083 7.9 10.375L15.65 5.825C15.6 5.69167 15.5627 5.554 15.538 5.412C15.5127 5.27067 15.5 5.13333 15.5 5C15.5 4.3 15.7417 3.70833 16.225 3.225C16.7083 2.74167 17.3 2.5 18 2.5C18.7 2.5 19.2917 2.74167 19.775 3.225C20.2583 3.70833 20.5 4.3 20.5 5C20.5 5.7 20.2583 6.29167 19.775 6.775C19.2917 7.25833 18.7 7.5 18 7.5C17.6333 7.5 17.2873 7.42067 16.962 7.262C16.6373 7.104 16.35 6.89167 16.1 6.625L8.35 11.175C8.4 11.3083 8.43767 11.4457 8.463 11.587C8.48767 11.729 8.5 11.8667 8.5 12C8.5 12.1333 8.48767 12.2707 8.463 12.412C8.43767 12.554 8.4 12.6917 8.35 12.825L16.1 17.375C16.35 17.1083 16.6373 16.896 16.962 16.738C17.2873 16.5793 17.6333 16.5 18 16.5C18.7 16.5 19.2917 16.7417 19.775 17.225C20.2583 17.7083 20.5 18.3 20.5 19C20.5 19.7 20.2583 20.2917 19.775 20.775C19.2917 21.2583 18.7 21.5 18 21.5ZM18 6.5C18.4167 6.5 18.7707 6.354 19.062 6.062C19.354 5.77067 19.5 5.41667 19.5 5C19.5 4.58333 19.354 4.22933 19.062 3.938C18.7707 3.646 18.4167 3.5 18 3.5C17.5833 3.5 17.2293 3.646 16.938 3.938C16.646 4.22933 16.5 4.58333 16.5 5C16.5 5.41667 16.646 5.77067 16.938 6.062C17.2293 6.354 17.5833 6.5 18 6.5ZM6 13.5C6.41667 13.5 6.77067 13.354 7.062 13.062C7.354 12.7707 7.5 12.4167 7.5 12C7.5 11.5833 7.354 11.2293 7.062 10.938C6.77067 10.646 6.41667 10.5 6 10.5C5.58333 10.5 5.22933 10.646 4.938 10.938C4.646 11.2293 4.5 11.5833 4.5 12C4.5 12.4167 4.646 12.7707 4.938 13.062C5.22933 13.354 5.58333 13.5 6 13.5ZM18 20.5C18.4167 20.5 18.7707 20.354 19.062 20.062C19.354 19.7707 19.5 19.4167 19.5 19C19.5 18.5833 19.354 18.2293 19.062 17.938C18.7707 17.646 18.4167 17.5 18 17.5C17.5833 17.5 17.2293 17.646 16.938 17.938C16.646 18.2293 16.5 18.5833 16.5 19C16.5 19.4167 16.646 19.7707 16.938 20.062C17.2293 20.354 17.5833 20.5 18 20.5Z" fill="#191919"/>
</g>
</svg>
