<svg width="24" height="24" viewBox="0 0 24 24" fill="none" xmlns="http://www.w3.org/2000/svg">
<mask id="mask0_406_5534" style="mask-type:alpha" maskUnits="userSpaceOnUse" x="0" y="0" width="24" height="24">
<rect width="24" height="24" fill="#D9D9D9"/>
</mask>
<g mask="url(#mask0_406_5534)">
<path d="M8 10.775C8.2 10.775 8.37933 10.6957 8.538 10.537C8.696 10.379 8.775 10.2 8.775 10C8.775 9.8 8.696 9.62067 8.538 9.462C8.37933 9.304 8.2 9.225 8 9.225C7.8 9.225 7.621 9.304 7.463 9.462C7.30433 9.62067 7.225 9.8 7.225 10C7.225 10.2 7.30433 10.379 7.463 10.537C7.621 10.6957 7.8 10.775 8 10.775ZM12 10.775C12.2 10.775 12.3793 10.6957 12.538 10.537C12.696 10.379 12.775 10.2 12.775 10C12.775 9.8 12.696 9.62067 12.538 9.462C12.3793 9.304 12.2 9.225 12 9.225C11.8 9.225 11.621 9.304 11.463 9.462C11.3043 9.62067 11.225 9.8 11.225 10C11.225 10.2 11.3043 10.379 11.463 10.537C11.621 10.6957 11.8 10.775 12 10.775ZM16 10.775C16.2 10.775 16.3793 10.6957 16.538 10.537C16.696 10.379 16.775 10.2 16.775 10C16.775 9.8 16.696 9.62067 16.538 9.462C16.3793 9.304 16.2 9.225 16 9.225C15.8 9.225 15.621 9.304 15.463 9.462C15.3043 9.62067 15.225 9.8 15.225 10C15.225 10.2 15.3043 10.379 15.463 10.537C15.621 10.6957 15.8 10.775 16 10.775ZM3 20.075V4.625C3 4.15833 3.15433 3.77067 3.463 3.462C3.771 3.154 4.15833 3 4.625 3H19.375C19.8417 3 20.2293 3.154 20.538 3.462C20.846 3.77067 21 4.15833 21 4.625V15.375C21 15.8417 20.846 16.2293 20.538 16.538C20.2293 16.846 19.8417 17 19.375 17H6.075L3 20.075ZM4 17.65L5.65 16H19.375C19.5583 16 19.7083 15.9417 19.825 15.825C19.9417 15.7083 20 15.5583 20 15.375V4.625C20 4.44167 19.9417 4.29167 19.825 4.175C19.7083 4.05833 19.5583 4 19.375 4H4.625C4.44167 4 4.29167 4.05833 4.175 4.175C4.05833 4.29167 4 4.44167 4 4.625V17.65ZM4 4.625V4V17.65V4.625Z" fill="#191919"/>
</g>
</svg>
