<svg width="24" height="24" viewBox="0 0 24 24" fill="none" xmlns="http://www.w3.org/2000/svg">
<mask id="mask0_406_5543" style="mask-type:alpha" maskUnits="userSpaceOnUse" x="0" y="0" width="24" height="24">
<rect width="24" height="24" fill="#D9D9D9"/>
</mask>
<g mask="url(#mask0_406_5543)">
<path d="M20.5 10.9V18.875C20.5 19.3417 20.3461 19.7293 20.038 20.038C19.7294 20.346 19.35 20.5 18.9 20.5H5.12505C4.65838 20.5 4.27072 20.346 3.96205 20.038C3.65405 19.7293 3.50005 19.3417 3.50005 18.875V10.85C3.08338 10.55 2.77505 10.1457 2.57505 9.637C2.37505 9.129 2.37505 8.59167 2.57505 8.025L3.55005 4.8C3.68338 4.4 3.89605 4.08333 4.18805 3.85C4.47938 3.61667 4.84172 3.5 5.27505 3.5H18.675C19.125 3.5 19.496 3.60833 19.788 3.825C20.0794 4.04167 20.2917 4.35833 20.425 4.775L21.4501 8.025C21.6334 8.59167 21.6294 9.13333 21.438 9.65C21.246 10.1667 20.9334 10.5833 20.5 10.9ZM14.2 10.5C14.85 10.5 15.3334 10.3207 15.65 9.962C15.9667 9.604 16.1 9.23333 16.05 8.85L15.375 4.5H12.5V8.7C12.5 9.18333 12.6707 9.604 13.012 9.962C13.354 10.3207 13.75 10.5 14.2 10.5ZM9.70005 10.5C10.2334 10.5 10.6667 10.3207 11 9.962C11.3334 9.604 11.5 9.18333 11.5 8.7V4.5H8.62505L7.97505 8.925C7.92505 9.24167 8.05838 9.58333 8.37505 9.95C8.69172 10.3167 9.13338 10.5 9.70005 10.5ZM5.25005 10.5C5.70005 10.5 6.07938 10.35 6.38805 10.05C6.69605 9.75 6.88338 9.375 6.95005 8.925L7.57505 4.5H5.27505C5.05838 4.5 4.88772 4.55 4.76305 4.65C4.63772 4.75 4.54172 4.89167 4.47505 5.075L3.55005 8.225C3.38338 8.75833 3.45438 9.27067 3.76305 9.762C4.07105 10.254 4.56672 10.5 5.25005 10.5ZM18.75 10.5C19.35 10.5 19.8294 10.2667 20.188 9.8C20.546 9.33333 20.6334 8.80833 20.4501 8.225L19.475 5.05C19.4084 4.85 19.3127 4.70833 19.188 4.625C19.0627 4.54167 18.8917 4.5 18.675 4.5H16.425L17.05 8.925C17.1334 9.375 17.3294 9.75 17.638 10.05C17.946 10.35 18.3167 10.5 18.75 10.5ZM5.12505 19.5H18.9C19.0667 19.5 19.2084 19.4417 19.3251 19.325C19.4417 19.2083 19.5 19.0583 19.5 18.875V11.375C19.3667 11.425 19.2417 11.4583 19.125 11.475C19.0084 11.4917 18.8834 11.5 18.75 11.5C18.3 11.5 17.904 11.4127 17.562 11.238C17.2207 11.0627 16.9 10.7833 16.6 10.4C16.3334 10.7167 16.0084 10.9793 15.625 11.188C15.2417 11.396 14.775 11.5 14.225 11.5C13.825 11.5 13.446 11.4083 13.088 11.225C12.7294 11.0417 12.3667 10.7667 12 10.4C11.6667 10.7667 11.2957 11.0417 10.887 11.225C10.479 11.4083 10.0917 11.5 9.72505 11.5C9.30838 11.5 8.90005 11.4207 8.50005 11.262C8.10005 11.104 7.75005 10.8167 7.45005 10.4C6.96672 10.8833 6.54172 11.1873 6.17505 11.312C5.80838 11.4373 5.50005 11.5 5.25005 11.5C5.13338 11.5 5.01272 11.4917 4.88805 11.475C4.76272 11.4583 4.63338 11.425 4.50005 11.375V18.875C4.50005 19.0583 4.55838 19.2083 4.67505 19.325C4.79172 19.4417 4.94172 19.5 5.12505 19.5Z" fill="#191919"/>
</g>
</svg>
