<svg width="24" height="24" viewBox="0 0 24 24" fill="none" xmlns="http://www.w3.org/2000/svg">
<mask id="mask0_406_5495" style="mask-type:alpha" maskUnits="userSpaceOnUse" x="0" y="0" width="24" height="24">
<rect width="24" height="24" fill="#D9D9D9"/>
</mask>
<g mask="url(#mask0_406_5495)">
<path d="M15.45 12.6502L14.65 11.8502C14.8 10.9835 14.5543 10.2292 13.913 9.5872C13.271 8.94586 12.5166 8.7002 11.65 8.8502L10.85 8.0502C11.0166 7.98353 11.1916 7.93353 11.375 7.9002C11.5583 7.86686 11.7666 7.85019 12 7.85019C13.0166 7.85019 13.8793 8.2042 14.588 8.9122C15.296 9.62086 15.65 10.4835 15.65 11.5002C15.65 11.7335 15.6333 11.9459 15.6 12.1372C15.5666 12.3292 15.5166 12.5002 15.45 12.6502ZM18.6 15.7252L17.85 15.0502C18.4833 14.5669 19.0459 14.0375 19.538 13.4622C20.0293 12.8875 20.4499 12.2335 20.7999 11.5002C19.9666 9.81686 18.7706 8.4792 17.212 7.4872C15.654 6.49586 13.9166 6.0002 12 6.0002C11.5166 6.0002 11.0416 6.03353 10.575 6.1002C10.1083 6.16686 9.64995 6.26686 9.19995 6.4002L8.42495 5.6252C9.00829 5.40853 9.59995 5.2502 10.2 5.1502C10.8 5.0502 11.4 5.0002 12 5.0002C14.1666 5.0002 16.15 5.59586 17.95 6.7872C19.75 7.9792 21.0749 9.5502 21.9249 11.5002C21.5583 12.3002 21.104 13.0542 20.562 13.7622C20.0206 14.4709 19.3666 15.1252 18.6 15.7252ZM19.725 21.1502L15.825 17.2502C15.3916 17.4502 14.846 17.6252 14.188 17.7752C13.5293 17.9252 12.8 18.0002 12 18.0002C9.81662 18.0002 7.83328 17.4042 6.04995 16.2122C4.26662 15.0209 2.94162 13.4502 2.07495 11.5002C2.45828 10.6169 2.97095 9.78753 3.61295 9.0122C4.25428 8.23753 4.93328 7.59186 5.64995 7.0752L2.84995 4.2752L3.57495 3.5752L20.4249 20.4252L19.725 21.1502ZM6.34995 7.7752C5.78328 8.19186 5.19995 8.73353 4.59995 9.4002C3.99995 10.0669 3.53328 10.7669 3.19995 11.5002C4.03328 13.1835 5.22895 14.5209 6.78695 15.5122C8.34562 16.5042 10.0833 17.0002 12 17.0002C12.5833 17.0002 13.1666 16.9459 13.75 16.8372C14.3333 16.7292 14.775 16.6169 15.075 16.5002L13.425 14.8502C13.275 14.9335 13.0583 15.0042 12.775 15.0622C12.4916 15.1209 12.2333 15.1502 12 15.1502C10.9833 15.1502 10.121 14.7959 9.41295 14.0872C8.70428 13.3792 8.34995 12.5169 8.34995 11.5002C8.34995 11.2835 8.37928 11.0375 8.43795 10.7622C8.49595 10.4875 8.56662 10.2585 8.64995 10.0752L6.34995 7.7752Z" fill="#191919"/>
</g>
</svg>
